<svg width="300" height="50" viewBox="0 0 300 50" fill="none" xmlns="http://www.w3.org/2000/svg">
<g clip-path="url(#clip0_948_1210)">
<path d="M292.853 26.1254C292.776 26.0964 292.709 26.0439 292.664 25.9752C292.618 25.9066 292.594 25.8253 292.597 25.7428C292.6 25.6603 292.628 25.5807 292.678 25.5152C292.729 25.4496 292.798 25.4015 292.877 25.3775C293.626 25.1758 294.353 24.9021 295.048 24.5603C296.102 24.0525 297.04 23.3341 297.805 22.4494C298.542 21.5751 299.101 20.565 299.451 19.476C299.831 18.2738 300.016 17.0185 300 15.7578C300.001 15.0344 299.941 14.3121 299.822 13.5986C299.706 12.9093 299.527 12.232 299.288 11.5752C299.048 10.9117 298.745 10.2725 298.384 9.6663C298 9.02693 297.562 8.4216 297.075 7.85694C296.547 7.2499 295.938 6.71822 295.266 6.27677C294.502 5.78181 293.687 5.37033 292.835 5.04943C291.872 4.68582 290.875 4.42208 289.859 4.26236C288.713 4.07931 287.554 3.99055 286.394 3.99698H270.713V45.5126H279.361V29.2556H284.488C286.37 29.2556 287.777 29.6989 288.71 30.5855C289.642 31.472 290.113 32.8019 290.121 34.5751V42.6991C290.121 45.1357 290.89 45.5126 290.89 45.5126H299.611C299.611 45.5126 298.845 44.038 298.845 39.3035V34.4635C298.852 33.4732 298.699 32.4883 298.39 31.5474C298.081 30.6258 297.618 29.7632 297.021 28.9962C296.387 28.1843 295.604 27.5015 294.714 26.9848C294.125 26.6429 293.506 26.3552 292.865 26.1254M289.34 21.1406C288.86 21.7017 288.248 22.1331 287.558 22.3951C286.76 22.6874 285.916 22.8286 285.067 22.8113H279.337V10.0885H284.901C285.808 10.0666 286.711 10.2244 287.558 10.5529C288.276 10.8467 288.902 11.3304 289.367 11.9521C289.839 12.5877 290.193 13.3026 290.413 14.063C290.655 14.904 290.772 15.7756 290.763 16.6504C290.774 17.5099 290.654 18.3661 290.407 19.1895C290.187 19.9094 289.822 20.5772 289.337 21.1527" fill="white"/>
<path d="M256.358 45.5126L254.492 36.5201H243.376L241.452 45.5247H232.071L243.66 4.01206H254.142L265.731 45.5247L256.358 45.5126ZM249.278 12.2959C249.262 12.2075 249.215 12.1275 249.147 12.0698C249.078 12.0122 248.991 11.9806 248.901 11.9806C248.811 11.9806 248.724 12.0122 248.655 12.0698C248.586 12.1275 248.54 12.2075 248.524 12.2959C248.222 13.9605 247.758 16.3247 247.393 18.0949C246.766 21.1346 245.979 25.3926 245.029 29.2887H252.782C251.877 25.67 251.099 21.5447 250.472 18.505C250.098 16.6956 249.609 14.0872 249.266 12.2959" fill="white"/>
<path d="M202.663 4V45.5126H227.659V38.7275H211.01V27.8533H225.777V20.7215H211.01V10.7851H227.258V4H202.663Z" fill="white"/>
<path d="M182.817 4C185.033 3.95449 187.241 4.29113 189.343 4.99515C191.186 5.65858 192.574 6.56325 193.504 7.70918C194.375 8.75353 195.06 9.93987 195.528 11.2163C195.954 12.4478 196.166 13.7431 196.155 15.0461C196.185 17.0218 195.541 18.9488 194.331 20.5104C193.356 21.7769 191.966 22.7359 190.163 23.3872C190.087 23.4173 190.022 23.47 189.977 23.5383C189.932 23.6065 189.91 23.6869 189.912 23.7686C189.914 23.8502 189.941 23.9292 189.99 23.9948C190.039 24.0604 190.107 24.1093 190.184 24.1351C192.009 24.6099 193.645 25.6305 194.874 27.0602C196.335 28.7952 197.067 31.0267 197.069 33.7548C197.079 35.1792 196.837 36.5942 196.354 37.9344C195.847 39.2978 195.094 40.5561 194.132 41.6466C193.126 42.8167 191.71 43.7525 189.883 44.4541C187.819 45.1958 185.637 45.5525 183.444 45.5066H168.366V4H182.817ZM176.717 10.1337V21.2371H181.276C185.04 21.2371 186.921 19.5876 186.921 15.6854C186.921 11.7832 185.04 10.1337 181.276 10.1337H176.717ZM176.717 27.2924V39.4272H181.961C184.015 39.4272 185.507 38.8049 186.436 37.5605C187.368 36.3181 187.832 35.0546 187.832 33.1668C187.832 31.279 187.359 30.0788 186.406 28.9661C185.453 27.8533 184.032 27.2924 182.133 27.2924H176.717Z" fill="white"/>
<path d="M8.65173 29.9009V45.5126H5.72205e-06V4H15.7806C18.3639 4 20.6156 4.39001 22.5355 5.17005C24.4554 5.95008 25.9281 6.98242 26.9534 8.26706C27.9383 9.47845 28.701 10.8547 29.206 12.3321C29.6814 13.7553 29.9218 15.2464 29.9177 16.7469C29.9708 20.1551 28.7281 23.4564 26.4407 25.9837C24.1207 28.5972 20.4538 29.9039 15.4398 29.9039L8.65173 29.9009ZM8.65173 24.4728H13.73C18.2896 24.4728 20.5694 21.7377 20.5694 17.1058C20.5694 12.4738 18.3469 10.0975 13.8989 10.0975H8.65173V24.4728Z" fill="white"/>
<path d="M70.7066 4V45.5126H96.5713V37.853H79.7141V4H70.7066Z" fill="white"/>
<path d="M102.584 4V45.5126H128.452V37.853H111.592V4H102.584Z" fill="white"/>
<path d="M151.274 39.3789H146.715C142.951 39.3789 141.069 37.7294 141.069 33.8272C141.069 29.925 142.951 28.2755 146.715 28.2755H151.274V39.3789ZM159.621 22.2202V16.4544H151.274V22.2202H145.846C143.946 22.2202 142.521 21.6623 141.57 20.5465C140.62 19.4338 140.144 18.2336 140.144 16.3458C140.144 14.4581 140.611 13.1945 141.543 11.9521C142.475 10.7097 143.955 10.0855 146.018 10.0855H151.259V4H144.534C142.341 3.95442 140.158 4.31112 138.093 5.05244C136.268 5.75407 134.852 6.68991 133.847 7.85996C132.885 8.95159 132.131 10.2096 131.621 11.5722C131.142 12.913 130.901 14.3276 130.91 15.7518C130.91 18.4819 131.642 20.7134 133.105 22.4464C134.337 23.8752 135.976 24.8928 137.803 25.3624C137.881 25.3871 137.95 25.4353 137.999 25.5005C138.049 25.5657 138.077 25.6446 138.079 25.7263C138.082 25.8081 138.059 25.8886 138.014 25.9568C137.969 26.0251 137.904 26.0777 137.828 26.1073C136.018 26.7587 134.628 27.7176 133.657 28.9842C132.452 30.5477 131.814 32.4745 131.848 34.4484C131.837 35.7514 132.049 37.0467 132.475 38.2782C132.942 39.5562 133.627 40.7437 134.498 41.7884C135.427 42.9383 136.814 43.843 138.66 44.5024C140.762 45.207 142.969 45.5437 145.186 45.4975H159.633V28.2785H162.57V22.2202H159.621Z" fill="white"/>
<path d="M55.2848 4V32.7657C55.2848 34.8706 54.8003 36.5171 53.8313 37.7053C52.8623 38.8934 51.4651 39.4875 49.6396 39.4875H49.0365C47.2111 39.4875 45.8149 38.8934 44.8479 37.7053C43.8809 36.5171 43.3954 34.8706 43.3913 32.7657V4H34.3325V32.3466C34.3325 36.7533 35.6393 40.2122 38.2528 42.7232C40.8663 45.2342 44.4578 46.4907 49.0275 46.4927H49.6306C54.2022 46.4927 57.7938 45.2362 60.4053 42.7232C63.0168 40.2102 64.3236 36.7513 64.3256 32.3466V4H55.2848Z" fill="white"/>
</g>
<defs>
<clipPath id="clip0_948_1210">
<rect width="300" height="42.5047" fill="white" transform="translate(0 4)"/>
</clipPath>
</defs>
</svg>
